<svg height="512pt" viewBox="-6 0 512 512.00038" width="512pt" xmlns="http://www.w3.org/2000/svg"><path d="m500.757812 261.621094c0 51.292968-15.421874 98.984375-41.886718 138.691406-15.175782 22.761719-110.882813 94.367188-143.082032 103.058594-20.851562 5.625-42.78125 8.628906-65.410156 8.628906-6.535156 0-13.007812-.25-19.417968-.742188-38.941407-2.988281-163.308594-75-183.617188-103.09375-29.789062-41.199218-47.34375-91.820312-47.34375-146.542968 0-138.28125 112.097656-250.378906 250.378906-250.378906s250.378906 112.097656 250.378906 250.378906zm0 0" fill="#a174be"/><path d="m70.515625 194.171875v206.519531c0 12.414063-15.890625 17.523438-23.164063 7.460938-6.507812-8.996094-12.429687-18.445313-17.714843-28.289063v-185.691406c0-5.644531 4.574219-10.21875 10.21875-10.21875h20.441406c5.644531 0 10.21875 4.574219 10.21875 10.21875zm173.730469 235.050781h-30.65625c-5.644532 0-10.21875 4.574219-10.21875 10.21875v45.539063c0 13.507812 10.332031 24.703125 23.78125 25.949219 7.648437.707031 15.394531 1.070312 23.226562 1.070312 1.367188 0 2.726563-.027344 4.089844-.050781v-72.507813c0-5.644531-4.578125-10.21875-10.222656-10.21875zm81.757812-122.636718h-30.660156c-5.640625 0-10.21875 4.578124-10.21875 10.222656v192.78125c11.292969-1.570313 22.34375-3.882813 33.101562-6.898438 10.628907-2.980468 17.996094-12.644531 17.996094-23.683594v-162.199218c0-5.644532-4.574218-10.222656-10.21875-10.222656zm137.964844-71.535157h-25.550781v-51.097656c0-5.644531-4.574219-10.21875-10.21875-10.21875h-30.65625c-5.644531 0-10.222657 4.574219-10.222657 10.21875v200.476563c0 36.265624 46.65625 51.214843 67.597657 21.605468 9.46875-13.378906 17.652343-27.730468 24.378906-42.875v-112.78125c0-8.464844-6.863281-15.328125-15.328125-15.328125zm0 0" fill="#804ba1"/><path d="m347.683594 94.941406c3.988281 3.988282 3.988281 10.460938 0 14.453125-1.996094 1.996094-4.613282 2.992188-7.226563 2.992188-2.617187 0-5.230469-.996094-7.226562-2.992188-1.929688-1.929687-4.496094-2.996093-7.226563-2.996093-2.730468 0-5.296875 1.066406-7.226562 2.996093-3.988282 3.988281-10.460938 3.988281-14.453125 0-3.988281-3.992187-3.988281-10.460937 0-14.453125 11.957031-11.957031 31.40625-11.953125 43.359375 0zm20.4375-26.425781c-23.222656-23.222656-61.011719-23.222656-84.234375 0-3.992188 3.988281-3.992188 10.460937 0 14.453125 3.988281 3.988281 10.457031 3.988281 14.453125 0 15.253906-15.257812 40.078125-15.253906 55.328125 0 1.996093 1.992188 4.613281 2.992188 7.226562 2.992188 2.617188 0 5.230469-1 7.226563-2.992188 3.992187-3.992188 3.992187-10.460938 0-14.453125zm0 0" fill="#aef7ff"/><path d="m347.683594 94.941406c3.988281 3.988282 3.988281 10.460938 0 14.453125-1.996094 1.996094-4.613282 2.992188-7.226563 2.992188-2.617187 0-5.230469-.996094-7.226562-2.992188-1.914063-1.914062-4.453125-2.972656-7.15625-2.992187-5.246094-4.992188-9.394531-11.121094-12.054688-17.992188 11.164063-4.726562 24.578125-2.554687 33.664063 6.53125zm20.4375-26.425781c-14.636719-14.636719-35.058594-20.039063-53.972656-16.226563-2.234376 5.644532-3.472657 11.789063-3.472657 18.226563 0 1.367187.070313 2.714844.179688 4.054687 14.214843-5.953124 31.261719-3.15625 42.8125 8.398438 1.996093 1.996094 4.613281 2.992188 7.226562 2.992188 2.617188 0 5.230469-1 7.226563-2.992188 3.992187-3.992188 3.992187-10.460938 0-14.453125zm0 0" fill="#d2fcff"/><path d="m268.773438 85.941406v251.304688c0 6.394531-5.183594 11.582031-11.582032 11.582031h-26.230468v162.429687c-75.742188-5.8125-142.042969-45.332031-183.949219-103.578124v-158.648438c0-8.429688 5.171875-15.996094 13.03125-19.050781l35-13.609375v-198.976563c0-12.710937 13.199219-21.121093 24.71875-15.742187l135.644531 63.296875c8.15625 3.808593 13.367188 11.992187 13.367188 20.992187zm179.074218 172.1875-111.625-52.09375v-73.179687c0-5.644531-4.574218-10.21875-10.21875-10.21875-5.644531 0-10.21875 4.574219-10.21875 10.21875v370.496093c59.296875-16.003906 109.871094-53.234374 143.074219-103.050781v-124.886719c0-7.410156-4.292969-14.152343-11.011719-17.285156zm0 0" fill="#03bdd6"/><path d="m119.761719 1.652344 3.179687 1.480468c-4.425781 3.074219-7.460937 8.171876-7.460937 14.261719v197.425781c0 12.640626-7.761719 23.988282-19.546875 28.570313l-15.453125 6.011719c-7.855469 3.054687-13.03125 10.621094-13.03125 19.050781v164.085937c-7.324219-7.835937-14.160157-16.128906-20.4375-24.859374v-158.648438c0-8.429688 5.171875-15.996094 13.03125-19.050781l35-13.609375v-198.976563c0-12.710937 13.199219-21.117187 24.71875-15.742187zm206.242187 120.984375c-5.644531 0-10.21875 4.574219-10.21875 10.21875v370.496093c6.9375-1.875 13.753906-4.046874 20.4375-6.488281v-364.007812c0-5.644531-4.574218-10.21875-10.21875-10.21875zm0 0" fill="#0db2cc"/><path d="m144.097656 357.683594v130.683594c-6.996094-3.285157-13.816406-6.882813-20.441406-10.777344v-119.90625c0-5.644532 4.574219-10.21875 10.21875-10.21875s10.222656 4.574218 10.222656 10.21875zm-10.222656-306.585938c-5.644531 0-10.21875 4.574219-10.21875 10.21875v245.269532c0 5.644531 4.574219 10.222656 10.21875 10.222656s10.222656-4.578125 10.222656-10.222656v-245.269532c0-5.644531-4.578125-10.21875-10.222656-10.21875zm-53.140625 367.90625c-5.644531 0-10.21875 4.574219-10.21875 10.21875v6.554688c6.460937 6.671875 13.277344 12.992187 20.4375 18.914062v-25.46875c0-5.644531-4.574219-10.21875-10.21875-10.21875zm-33.722656-169.972656v139.3125h27.589843c11.289063 0 20.441407-9.152344 20.441407-20.4375v-151.535156l-35 13.609375c-7.859375 3.058593-13.03125 10.621093-13.03125 19.050781zm141.027343 37.117188c-5.644531 0-10.21875 4.574218-10.21875 10.21875v204.941406c6.699219 2.023437 13.515626 3.777344 20.4375 5.242187v-210.183593c0-5.644532-4.574218-10.21875-10.21875-10.21875zm199.28125 112.414062c-5.644531 0-10.21875 4.574219-10.21875 10.21875v10.222656c0 5.644532 4.574219 10.21875 10.21875 10.21875 5.644532 0 10.222657-4.574218 10.222657-10.21875v-10.222656c0-5.644531-4.578125-10.21875-10.222657-10.21875zm40.878907-102.195312c-5.644531 0-10.21875 4.574218-10.21875 10.21875v141.035156c7.207031-6.5 14.027343-13.414063 20.4375-20.699219v-120.335937c0-5.644532-4.574219-10.21875-10.21875-10.21875zm-172.792969-231.414063-82.695312-38.59375v218.910156c0 11.289063 9.152343 20.4375 20.4375 20.4375h75.625v-179.765625c0-9-5.210938-17.183594-13.367188-20.988281zm131.914062 210.976563c-5.644531 0-10.21875 4.574218-10.21875 10.21875v81.757812c0 5.644531 4.574219 10.21875 10.21875 10.21875 5.644532 0 10.222657-4.574219 10.222657-10.21875v-81.757812c0-5.644532-4.578125-10.21875-10.222657-10.21875zm-40.878906-20.441407c-5.640625 0-10.21875 4.578125-10.21875 10.21875v231.1875c6.964844-2.542969 13.78125-5.398437 20.441406-8.527343v-222.660157c0-5.640625-4.578124-10.21875-10.222656-10.21875zm0 0" fill="#83e3ea"/><path d="m144.097656 91.976562v112.414063c0 5.644531-4.578125 10.21875-10.222656 10.21875s-10.21875-4.574219-10.21875-10.21875v-112.414063c0-5.644531 4.574219-10.21875 10.21875-10.21875s10.222656 4.574219 10.222656 10.21875zm-83.800781 255.488282c0 11.289062 9.148437 20.441406 20.4375 20.441406 5.574219 0 10.621094-2.238281 14.308594-5.855469v-145.679687l-34.746094 13.511718zm73.578125 20.441406c-5.644531 0-10.21875 4.574219-10.21875 10.21875v40.878906c0 5.644532 4.574219 10.21875 10.21875 10.21875s10.222656-4.574218 10.222656-10.21875v-40.878906c0-5.644531-4.578125-10.21875-10.222656-10.21875zm54.164062-51.097656c-5.644531 0-10.21875 4.574218-10.21875 10.21875v122.632812c0 5.644532 4.574219 10.21875 10.21875 10.21875 5.644532 0 10.21875-4.574218 10.21875-10.21875v-122.632812c0-5.644532-4.574218-10.21875-10.21875-10.21875zm-54.164062-71.539063c-5.644531 0-10.21875 4.574219-10.21875 10.21875v10.21875c0 5.644531 4.574219 10.222657 10.21875 10.222657s10.222656-4.578126 10.222656-10.222657v-10.21875c0-5.644531-4.578125-10.21875-10.222656-10.21875zm253.445312 30.660157c-5.644531 0-10.21875 4.574218-10.21875 10.21875v40.878906c0 5.644531 4.574219 10.21875 10.21875 10.21875 5.644532 0 10.222657-4.574219 10.222657-10.21875v-40.878906c0-5.644532-4.578125-10.21875-10.222657-10.21875zm40.878907 61.316406c-5.644531 0-10.21875 4.574218-10.21875 10.21875v40.878906c0 5.644531 4.574219 10.21875 10.21875 10.21875s10.21875-4.574219 10.21875-10.21875v-40.878906c0-5.644532-4.574219-10.21875-10.21875-10.21875zm-172.792969-272.292969-62.257812-29.054687v163.382812c0 25.398438 20.589843 45.988281 45.988281 45.988281 11.296875 0 21.632812-4.078125 29.636719-10.832031v-148.496094c0-9-5.210938-17.183594-13.367188-20.988281zm91.035156 251.855469c-5.640625 0-10.21875 4.574218-10.21875 10.21875v122.632812c0 5.644532 4.578125 10.21875 10.21875 10.21875 5.644532 0 10.222656-4.574218 10.222656-10.21875v-122.632812c0-5.644532-4.578124-10.21875-10.222656-10.21875zm0 0" fill="#aef7ff"/></svg>